<svg width="46" height="46" viewBox="0 0 46 46" fill="none" xmlns="http://www.w3.org/2000/svg">
<path d="M39.7273 28.4147V34.9719H46V39.3434H39.7273V45.9007H35.5455V39.3434H29.2727V34.9719H35.5455V28.4147H39.7273ZM23 24.0432C20.7 24.0432 18.8182 26.0104 18.8182 28.4147C18.8182 30.819 20.7 32.7862 23 32.7862C25.3 32.7862 27.1818 30.819 27.1818 28.4147C27.1818 26.0104 25.3 24.0432 23 24.0432ZM25.8227 41.5292H9.40909C7.48545 41.5292 5.87545 40.174 5.39455 38.338L0.0836363 18.0761C-7.45058e-08 17.8794 0 17.6827 0 17.486C0 16.2838 0.940909 15.3002 2.09091 15.3002H12.1064L21.2645 0.983582C21.6618 0.349719 22.3309 0 23 0C23.6691 0 24.3382 0.349719 24.7355 0.961732L33.8936 15.3002H43.9091C45.0591 15.3002 46 16.2838 46 17.486L45.9373 18.0761L43.9091 25.8137C42.7173 25.1361 41.3791 24.5678 39.9782 24.2836L41.1909 19.6717H4.83L9.40909 37.1577H25.0909C25.0909 38.6877 25.3627 40.1521 25.8227 41.5292ZM17.1455 15.3002H28.8545L23 6.12009L17.1455 15.3002Z" fill="#495E57"/>
</svg>
